<svg width="1200" height="900" viewBox="0 0 1200 900" fill="none" xmlns="http://www.w3.org/2000/svg" role="img" aria-labelledby="title desc">
  <title id="title">Илустрација улаза стамбене зграде</title>
  <desc id="desc">Стилизована илустрација зграде, привремено решење до стварних фотографија.</desc>
  <rect width="1200" height="900" fill="#F8FAFC"/>
  <rect x="90" y="80" width="1020" height="650" rx="8" fill="#E7EFEA"/>
  <rect x="170" y="150" width="250" height="580" rx="8" fill="#FFFFFF"/>
  <rect x="475" y="110" width="330" height="620" rx="8" fill="#F3F7F4"/>
  <rect x="850" y="210" width="180" height="520" rx="8" fill="#FFFFFF"/>
  <g fill="#0F766E" opacity=".62">
    <rect x="225" y="205" width="70" height="90" rx="6"/>
    <rect x="225" y="345" width="70" height="90" rx="6"/>
    <rect x="225" y="485" width="70" height="90" rx="6"/>
    <rect x="535" y="175" width="82" height="94" rx="6"/>
    <rect x="670" y="175" width="82" height="94" rx="6"/>
    <rect x="535" y="325" width="82" height="94" rx="6"/>
    <rect x="670" y="325" width="82" height="94" rx="6"/>
    <rect x="535" y="475" width="82" height="94" rx="6"/>
    <rect x="900" y="275" width="72" height="82" rx="6"/>
    <rect x="900" y="415" width="72" height="82" rx="6"/>
  </g>
  <path d="M0 725C165 690 245 710 385 748C540 790 735 795 930 735C1035 702 1115 692 1200 705V900H0V725Z" fill="#0B3B2D"/>
  <path d="M155 755C166 675 215 632 292 613C286 696 238 743 155 755Z" fill="#A7F3D0"/>
  <path d="M910 760C920 682 968 640 1040 620C1034 700 990 748 910 760Z" fill="#A7F3D0"/>
</svg>
